<?xml version="1.0" encoding="UTF-8" standalone="no"?>
<!-- Generator: Adobe Illustrator 16.0.0, SVG Export Plug-In . SVG Version: 6.00 Build 0)  -->

<svg
   xmlns:dc="http://purl.org/dc/elements/1.1/"
   xmlns:cc="http://creativecommons.org/ns#"
   xmlns:rdf="http://www.w3.org/1999/02/22-rdf-syntax-ns#"
   xmlns:svg="http://www.w3.org/2000/svg"
   xmlns="http://www.w3.org/2000/svg"
   xmlns:sodipodi="http://sodipodi.sourceforge.net/DTD/sodipodi-0.dtd"
   xmlns:inkscape="http://www.inkscape.org/namespaces/inkscape"
   version="1.1"
   id="Capa_1"
   x="0px"
   y="0px"
   width="510"
   height="510"
   viewBox="0 0 510 510"
   xml:space="preserve"
   inkscape:version="0.91 r13725"
   sodipodi:docname="help.svg"><metadata
     id="metadata42"><rdf:RDF><cc:Work
         rdf:about=""><dc:format>image/svg+xml</dc:format><dc:type
           rdf:resource="http://purl.org/dc/dcmitype/StillImage" /><dc:title /></cc:Work></rdf:RDF></metadata><defs
     id="defs40" /><sodipodi:namedview
     pagecolor="#ffffff"
     bordercolor="#666666"
     borderopacity="1"
     objecttolerance="10"
     gridtolerance="10"
     guidetolerance="10"
     inkscape:pageopacity="0"
     inkscape:pageshadow="2"
     inkscape:window-width="1060"
     inkscape:window-height="823"
     id="namedview38"
     showgrid="false"
     inkscape:zoom="0.1636051"
     inkscape:cx="652.57079"
     inkscape:cy="-187.53221"
     inkscape:window-x="1310"
     inkscape:window-y="207"
     inkscape:window-maximized="0"
     inkscape:current-layer="Capa_1"
     fit-margin-top="0"
     fit-margin-left="0"
     fit-margin-right="0"
     fit-margin-bottom="0" /><g
     id="g3381"
     transform="translate(-0.76403487,0.76403487)"
     style="fill:#333333;fill-opacity:1"><path
       inkscape:connector-curvature="0"
       id="path6"
       d="m 255.76403,-0.76403487 c -140.25,0 -254.99999513,114.75000487 -254.99999513,255.00000487 0,140.25 114.74999513,255 254.99999513,255 140.25,0 255,-114.75 255,-255 0,-140.25 -114.75,-255.00000487 -255,-255.00000487 z m 0,76.49999987 c 56.1,0 102,45.900005 102,102.000005 0,22.95 -10.19922,43.35039 -22.94922,58.65039 l -22.95117,22.94922 c -20.399,17.851 -30.59961,33.15039 -30.59961,71.40039 l -51,0 0,-12.75 c 0,-28.05 10.19961,-53.55039 30.59961,-71.40039 l 30.59961,-33.15039 c 10.2,-7.65 15.30078,-20.39922 15.30078,-35.69922 0,-28.05 -22.95,-51 -51,-51 -28.05,0 -51,22.95 -51,51 l -51,0 c 0,-56.1 45.9,-102.000005 102,-102.000005 z m -0.18164,304.541025 a 37.952862,38.087925 0 0 1 37.95312,38.08789 37.952862,38.087925 0 0 1 -37.95312,38.08789 37.952862,38.087925 0 0 1 -37.95313,-38.08789 37.952862,38.087925 0 0 1 37.95313,-38.08789 z"
       style="fill:#333333;fill-opacity:1" /></g><g
     id="g8"
     transform="translate(-0.76403487,0.76403487)" /><g
     id="g10"
     transform="translate(-0.76403487,0.76403487)" /><g
     id="g12"
     transform="translate(-0.76403487,0.76403487)" /><g
     id="g14"
     transform="translate(-0.76403487,0.76403487)" /><g
     id="g16"
     transform="translate(-0.76403487,0.76403487)" /><g
     id="g18"
     transform="translate(-0.76403487,0.76403487)" /><g
     id="g20"
     transform="translate(-0.76403487,0.76403487)" /><g
     id="g22"
     transform="translate(-0.76403487,0.76403487)" /><g
     id="g24"
     transform="translate(-0.76403487,0.76403487)" /><g
     id="g26"
     transform="translate(-0.76403487,0.76403487)" /><g
     id="g28"
     transform="translate(-0.76403487,0.76403487)" /><g
     id="g30"
     transform="translate(-0.76403487,0.76403487)" /><g
     id="g32"
     transform="translate(-0.76403487,0.76403487)" /><g
     id="g34"
     transform="translate(-0.76403487,0.76403487)" /><g
     id="g36"
     transform="translate(-0.76403487,0.76403487)" /></svg>