<?xml version="1.0" encoding="UTF-8" standalone="no"?>
<!--
This file is part of ARehab.

ARehab is free software : you can redistribute it and / or modify
it under the terms of the GNU General Public License as published by
the Free Software Foundation, version 3 of the License.

ARehab is distributed in the hope that it will be useful,
but WITHOUT ANY WARRANTY; without even the implied warranty of
MERCHANTABILITY or FITNESS FOR A PARTICULAR PURPOSE.See the
GNU General Public License for more details.

You should have received a copy of the GNU General Public License
along with Foobar.If not, see <http://www.gnu.org/licenses/>.

Copyright 2015 Jacobo de Haro
jacobodeharo@gmail.com
@jacobodeharo
-->
<svg
   xmlns:dc="http://purl.org/dc/elements/1.1/"
   xmlns:cc="http://creativecommons.org/ns#"
   xmlns:rdf="http://www.w3.org/1999/02/22-rdf-syntax-ns#"
   xmlns:svg="http://www.w3.org/2000/svg"
   xmlns="http://www.w3.org/2000/svg"
   xmlns:sodipodi="http://sodipodi.sourceforge.net/DTD/sodipodi-0.dtd"
   xmlns:inkscape="http://www.inkscape.org/namespaces/inkscape"
   version="1.1"
   id="Capa_1"
   x="0px"
   y="0px"
   viewBox="0 0 487.65 487.65"
   style="enable-background:new 0 0 487.65 487.65;"
   xml:space="preserve"
   inkscape:version="0.91 r13725"
   sodipodi:docname="about.svg"><metadata
     id="metadata41"><rdf:RDF><cc:Work
         rdf:about=""><dc:format>image/svg+xml</dc:format><dc:type
           rdf:resource="http://purl.org/dc/dcmitype/StillImage" /></cc:Work></rdf:RDF></metadata><defs
     id="defs39" /><sodipodi:namedview
     pagecolor="#ffffff"
     bordercolor="#666666"
     borderopacity="1"
     objecttolerance="10"
     gridtolerance="10"
     guidetolerance="10"
     inkscape:pageopacity="0"
     inkscape:pageshadow="2"
     inkscape:window-width="1050"
     inkscape:window-height="819"
     id="namedview37"
     showgrid="false"
     showguides="true"
     inkscape:guide-bbox="true"
     inkscape:zoom="0.17110346"
     inkscape:cx="247.90335"
     inkscape:cy="-666.41157"
     inkscape:window-x="241"
     inkscape:window-y="205"
     inkscape:window-maximized="0"
     inkscape:current-layer="Capa_1" /><path
     inkscape:connector-curvature="0"
     id="path5"
     d="M 243.824,0 C 109.163,0 0,109.163 0,243.833 0,378.487 109.163,487.65 243.824,487.65 378.486,487.65 487.65,378.487 487.65,243.833 487.65,109.163 378.486,0 243.824,0 Z m -3.16147,69.539827 c 20.416,0 36.977,16.555 36.977,36.977003 0,20.425 -16.561,36.978 -36.977,36.978 -20.424,0 -36.986,-16.553 -36.986,-36.978 -0.001,-20.422003 16.562,-36.977003 36.986,-36.977003 z M 307.281,405.45657 c 0,3.695 -2.995,6.691 -6.684,6.691 l -21.509,0 -70.663,0 -21.492,0 c -3.689,0 -6.683,-2.996 -6.683,-6.691 l 0,-13.719 c 0,-3.694 2.993,-6.689 6.683,-6.689 l 21.492,0 0,-154.34257 -22.153,0 c -3.689,0 -6.685,-2.996 -6.685,-6.692 l 0,-13.734 c 0,-3.695 3.05963,-6.00776 6.685,-6.69 18.84425,-3.54619 18.59777,-4.91107 22.42872,-26.88266 l 69.7657,-0.14777 C 277.82304,172.93015 279.305,206.585 279.305,210.28 l 0,174.76757 21.293,0 c 3.688,0 6.684,2.995 6.684,6.689 l 0,13.72 z"
     style="fill:#333333;fill-opacity:1"
     sodipodi:nodetypes="sssssssscscsccssssccssssccscsscc" /><g
     id="g7" /><g
     id="g9" /><g
     id="g11" /><g
     id="g13" /><g
     id="g15" /><g
     id="g17" /><g
     id="g19" /><g
     id="g21" /><g
     id="g23" /><g
     id="g25" /><g
     id="g27" /><g
     id="g29" /><g
     id="g31" /><g
     id="g33" /><g
     id="g35" /></svg>