<?xml version="1.0" encoding="UTF-8" standalone="no"?>
<!--
This file is part of ARehab.

ARehab is free software : you can redistribute it and / or modify
it under the terms of the GNU General Public License as published by
the Free Software Foundation, version 3 of the License.

ARehab is distributed in the hope that it will be useful,
but WITHOUT ANY WARRANTY; without even the implied warranty of
MERCHANTABILITY or FITNESS FOR A PARTICULAR PURPOSE.See the
GNU General Public License for more details.

You should have received a copy of the GNU General Public License
along with Foobar.If not, see <http://www.gnu.org/licenses/>.

Copyright 2015 Jacobo de Haro
jacobodeharo@gmail.com
@jacobodeharo
-->
<svg
   xmlns:dc="http://purl.org/dc/elements/1.1/"
   xmlns:cc="http://creativecommons.org/ns#"
   xmlns:rdf="http://www.w3.org/1999/02/22-rdf-syntax-ns#"
   xmlns:svg="http://www.w3.org/2000/svg"
   xmlns="http://www.w3.org/2000/svg"
   xmlns:sodipodi="http://sodipodi.sourceforge.net/DTD/sodipodi-0.dtd"
   xmlns:inkscape="http://www.inkscape.org/namespaces/inkscape"
   version="1.1"
   id="Capa_1"
   x="0px"
   y="0px"
   width="20"
   height="19.210789"
   viewBox="0 0 20 19.210789"
   xml:space="preserve"
   inkscape:version="0.91 r13725"
   sodipodi:docname="bad.svg"><metadata
     id="metadata41"><rdf:RDF><cc:Work
         rdf:about=""><dc:format>image/svg+xml</dc:format><dc:type
           rdf:resource="http://purl.org/dc/dcmitype/StillImage" /><dc:title></dc:title></cc:Work></rdf:RDF></metadata><defs
     id="defs39" /><sodipodi:namedview
     pagecolor="#ffffff"
     bordercolor="#666666"
     borderopacity="1"
     objecttolerance="10"
     gridtolerance="10"
     guidetolerance="10"
     inkscape:pageopacity="0"
     inkscape:pageshadow="2"
     inkscape:window-width="1920"
     inkscape:window-height="1017"
     id="namedview37"
     showgrid="false"
     fit-margin-top="0"
     fit-margin-left="0"
     fit-margin-right="0"
     fit-margin-bottom="0"
     inkscape:zoom="7.4176515"
     inkscape:cx="15.90801"
     inkscape:cy="15.279966"
     inkscape:window-x="-8"
     inkscape:window-y="-8"
     inkscape:window-maximized="1"
     inkscape:current-layer="Capa_1" /><g
     id="g3"
     transform="matrix(0.62859159,0,0,0.62859159,6.0070742e-6,-0.3937043)"
     style="fill:#d40000"><path
       d="M 30.922,9.343 C 31.484,8.818 31.807,8.084 31.817,7.315 31.825,6.545 31.516,5.805 30.965,5.267 L 27.143,1.53 C 26.608,1.007 25.887,0.718 25.137,0.727 24.389,0.736 23.676,1.041 23.155,1.577 L 15.958,8.954 8.862,1.562 C 8.303,0.979 7.537,0.643 6.73,0.627 5.923,0.61 5.142,0.916 4.561,1.475 L 0.866,5.025 C 0.31,5.558 -0.002,6.294 0,7.065 0.002,7.835 0.318,8.57 0.876,9.101 l 7.746,7.368 -6.858,7.028 c -1.046,1.071 -1.071,2.774 -0.058,3.879 l 2.67,2.901 c 0.509,0.556 1.218,0.881 1.97,0.909 0.751,0.028 1.483,-0.244 2.032,-0.759 l 7.522,-7.035 7.339,6.98 c 0.545,0.519 1.272,0.797 2.024,0.772 0.752,-0.021 1.463,-0.344 1.979,-0.895 l 2.691,-2.877 c 1.022,-1.097 1.014,-2.8 -0.023,-3.88 l -6.68,-6.964 7.692,-7.185 z"
       id="path5"
       inkscape:connector-curvature="0"
       style="fill:#d40000" /></g><g
     id="g7"
     transform="translate(9.5564024e-6,-11.977177)" /><g
     id="g9"
     transform="translate(9.5564024e-6,-11.977177)" /><g
     id="g11"
     transform="translate(9.5564024e-6,-11.977177)" /><g
     id="g13"
     transform="translate(9.5564024e-6,-11.977177)" /><g
     id="g15"
     transform="translate(9.5564024e-6,-11.977177)" /><g
     id="g17"
     transform="translate(9.5564024e-6,-11.977177)" /><g
     id="g19"
     transform="translate(9.5564024e-6,-11.977177)" /><g
     id="g21"
     transform="translate(9.5564024e-6,-11.977177)" /><g
     id="g23"
     transform="translate(9.5564024e-6,-11.977177)" /><g
     id="g25"
     transform="translate(9.5564024e-6,-11.977177)" /><g
     id="g27"
     transform="translate(9.5564024e-6,-11.977177)" /><g
     id="g29"
     transform="translate(9.5564024e-6,-11.977177)" /><g
     id="g31"
     transform="translate(9.5564024e-6,-11.977177)" /><g
     id="g33"
     transform="translate(9.5564024e-6,-11.977177)" /><g
     id="g35"
     transform="translate(9.5564024e-6,-11.977177)" /></svg>