<?xml version="1.0" encoding="UTF-8" standalone="no"?>
<!-- Generator: Adobe Illustrator 16.0.0, SVG Export Plug-In . SVG Version: 6.00 Build 0)  -->

<svg
   xmlns:dc="http://purl.org/dc/elements/1.1/"
   xmlns:cc="http://creativecommons.org/ns#"
   xmlns:rdf="http://www.w3.org/1999/02/22-rdf-syntax-ns#"
   xmlns:svg="http://www.w3.org/2000/svg"
   xmlns="http://www.w3.org/2000/svg"
   xmlns:sodipodi="http://sodipodi.sourceforge.net/DTD/sodipodi-0.dtd"
   xmlns:inkscape="http://www.inkscape.org/namespaces/inkscape"
   version="1.1"
   id="Capa_1"
   x="0px"
   y="0px"
   width="19.999998"
   height="14.552028"
   viewBox="0 0 19.999998 14.552028"
   xml:space="preserve"
   inkscape:version="0.91 r13725"
   sodipodi:docname="checked.svg"><metadata
     id="metadata41"><rdf:RDF><cc:Work
         rdf:about=""><dc:format>image/svg+xml</dc:format><dc:type
           rdf:resource="http://purl.org/dc/dcmitype/StillImage" /><dc:title></dc:title></cc:Work></rdf:RDF></metadata><defs
     id="defs39" /><sodipodi:namedview
     pagecolor="#ffffff"
     bordercolor="#666666"
     borderopacity="1"
     objecttolerance="10"
     gridtolerance="10"
     guidetolerance="10"
     inkscape:pageopacity="0"
     inkscape:pageshadow="2"
     inkscape:window-width="1920"
     inkscape:window-height="1017"
     id="namedview37"
     showgrid="false"
     inkscape:zoom="12.849619"
     inkscape:cx="0.17382674"
     inkscape:cy="-0.68654516"
     inkscape:window-x="-8"
     inkscape:window-y="-8"
     inkscape:window-maximized="1"
     inkscape:current-layer="Capa_1"
     fit-margin-top="0"
     fit-margin-left="0"
     fit-margin-right="0"
     fit-margin-bottom="0" /><g
     id="g3"
     style="fill:#00aa00"
     transform="matrix(0.04812545,0,0,0.04812545,-2.4062725e-5,-3.2345614)"><path
       d="M 411.47,96.426 384.01805,71.25996 c -5.71477,-5.238901 -14.44591,-5.5559 -19.853,0 L 156.3501,284.79419 52.272548,181.57623 c -5.48,-5.482 -14.37,-5.482 -19.851,0 L 4.112,207.314 c -5.482,5.481 -5.482,14.37 0,19.852 l 138.311,138.31 c 2.741,2.742 6.334,4.112 9.926,4.112 3.593,0 7.186,-1.37 9.926,-4.112 L 411.47,116.277 c 2.633,-2.632 4.111,-6.203 4.111,-9.925 10e-4,-3.724 -1.3662,-7.40976 -4.111,-9.926 z"
       id="path5"
       style="fill:#00aa00"
       inkscape:connector-curvature="0"
       sodipodi:nodetypes="sssccccscscccs" /></g><g
     id="g7"
     transform="translate(-5e-4,-355.03597)" /><g
     id="g9"
     transform="translate(-5e-4,-355.03597)" /><g
     id="g11"
     transform="translate(-5e-4,-355.03597)" /><g
     id="g13"
     transform="translate(-5e-4,-355.03597)" /><g
     id="g15"
     transform="translate(-5e-4,-355.03597)" /><g
     id="g17"
     transform="translate(-5e-4,-355.03597)" /><g
     id="g19"
     transform="translate(-5e-4,-355.03597)" /><g
     id="g21"
     transform="translate(-5e-4,-355.03597)" /><g
     id="g23"
     transform="translate(-5e-4,-355.03597)" /><g
     id="g25"
     transform="translate(-5e-4,-355.03597)" /><g
     id="g27"
     transform="translate(-5e-4,-355.03597)" /><g
     id="g29"
     transform="translate(-5e-4,-355.03597)" /><g
     id="g31"
     transform="translate(-5e-4,-355.03597)" /><g
     id="g33"
     transform="translate(-5e-4,-355.03597)" /><g
     id="g35"
     transform="translate(-5e-4,-355.03597)" /></svg>