<?xml version="1.0" encoding="iso-8859-1"?>
<!--
This file is part of ARehab.

ARehab is free software : you can redistribute it and / or modify
it under the terms of the GNU General Public License as published by
the Free Software Foundation, version 3 of the License.

ARehab is distributed in the hope that it will be useful,
but WITHOUT ANY WARRANTY; without even the implied warranty of
MERCHANTABILITY or FITNESS FOR A PARTICULAR PURPOSE.See the
GNU General Public License for more details.

You should have received a copy of the GNU General Public License
along with Foobar.If not, see <http://www.gnu.org/licenses/>.

Copyright 2015 Jacobo de Haro
jacobodeharo@gmail.com
@jacobodeharo
-->
<svg version="1.1" id="Capa_1" xmlns="http://www.w3.org/2000/svg" xmlns:xlink="http://www.w3.org/1999/xlink" x="0px" y="0px"
	 viewBox="0 0 543.987 543.987" style="enable-background:new 0 0 543.987 543.987;" xml:space="preserve">
<g>
	<path style="fill:#010002;" d="M85.265,74.203C-23.952,177.311-28.901,349.431,74.207,458.647c1.811,1.925,3.655,3.818,5.526,5.684
		c106.203,106.209,278.398,106.209,384.596,0c106.209-106.198,106.209-278.393,0-384.596C360.297-24.391,192.3-26.844,85.265,74.203
		z M137.431,191.268l53.841-53.841l80.765,80.765l80.765-80.765l53.847,53.841l-80.765,80.792l80.77,80.737l-53.847,53.847
		l-80.765-80.77l-80.765,80.77l-53.841-53.847l80.759-80.737L137.431,191.268z"/>
</g>
<g>
</g>
<g>
</g>
<g>
</g>
<g>
</g>
<g>
</g>
<g>
</g>
<g>
</g>
<g>
</g>
<g>
</g>
<g>
</g>
<g>
</g>
<g>
</g>
<g>
</g>
<g>
</g>
<g>
</g>
</svg>
