<?xml version="1.0" encoding="UTF-8" standalone="no"?>
<!--
This file is part of ARehab.

ARehab is free software : you can redistribute it and / or modify
it under the terms of the GNU General Public License as published by
the Free Software Foundation, version 3 of the License.

ARehab is distributed in the hope that it will be useful,
but WITHOUT ANY WARRANTY; without even the implied warranty of
MERCHANTABILITY or FITNESS FOR A PARTICULAR PURPOSE.See the
GNU General Public License for more details.

You should have received a copy of the GNU General Public License
along with Foobar.If not, see <http://www.gnu.org/licenses/>.

Copyright 2015 Jacobo de Haro
jacobodeharo@gmail.com
@jacobodeharo
-->
<svg
   xmlns:dc="http://purl.org/dc/elements/1.1/"
   xmlns:cc="http://creativecommons.org/ns#"
   xmlns:rdf="http://www.w3.org/1999/02/22-rdf-syntax-ns#"
   xmlns:svg="http://www.w3.org/2000/svg"
   xmlns="http://www.w3.org/2000/svg"
   version="1.1"
   id="svg4949"
   viewBox="0 0 209.99999 479.99997"
   height="135.46666mm"
   width="59.266666mm">
  <defs
     id="defs4951" />
  <metadata
     id="metadata4954">
    <rdf:RDF>
      <cc:Work
         rdf:about="">
        <dc:format>image/svg+xml</dc:format>
        <dc:type
           rdf:resource="http://purl.org/dc/dcmitype/StillImage" />
        <dc:title></dc:title>
      </cc:Work>
    </rdf:RDF>
  </metadata>
  <g
     id="g4150">
    <g
       style="fill:#c8beb7"
       id="layer1"
       transform="matrix(1.68,0,0,1.6,-137.49921,-90.713002)">
      <g
         id="g164"
         transform="matrix(0.84361838,0,0,-0.85123509,199.80929,205.33319)"
         style="fill:#c8beb7">
        <path
           d="m 0,0 c -2.089,2.593 -4.773,6.109 -5.542,8.152 -1.273,3.523 -2.215,14.814 -2.215,14.814 -0.39,13.362 -3.66,19.145 -3.66,19.145 -5.635,9.036 -6.689,25.847 -6.689,25.847 l -0.253,28.411 c -1.962,19.392 -16.271,19.53 -16.271,19.53 -14.447,2.174 -16.443,6.816 -16.443,6.816 -3.065,4.394 -1.321,12.84 -1.321,12.84 2.548,2.071 3.512,7.556 3.512,7.556 4.211,3.207 4.016,7.969 2.111,7.911 -1.606,-0.04 -1.216,1.246 -1.216,1.246 2.639,21.291 -16.283,22.346 -16.283,22.346 l -2.891,0 c 0,0 -18.875,-1.078 -16.271,-22.346 0,0 0.333,-1.286 -1.227,-1.246 -1.951,0.058 -2.135,-4.681 2.088,-7.911 0,0 0.964,-5.485 3.522,-7.556 0,0 1.734,-8.446 -1.319,-12.84 0,0 -2.008,-4.653 -16.432,-6.816 0,0 -14.297,-0.138 -16.271,-19.53 l -0.252,-28.411 c 0,0 -1.078,-16.833 -6.713,-25.847 0,0 -3.247,-5.783 -3.66,-19.145 0,0 -0.942,-11.291 -2.215,-14.814 -0.769,-2.065 -3.453,-5.57 -5.542,-8.152 -4.109,-5.146 -11.016,-15.83 -7.332,-17 0,0 2.856,-0.287 6.667,7.252 0,0 -0.069,-2.893 -3.145,-11.324 -0.585,-1.584 -3.144,-9.537 0.987,-6.668 0,0 1.893,1.308 4.395,9.523 0,0 -1.319,-13.826 0.126,-14.525 1.951,-0.942 3.029,1.777 3.879,13.918 0,0 0.895,3.9 1.308,-11.028 0.022,-0.757 1.171,-4.601 2.731,-1.33 1.308,2.731 0.734,10.028 0.734,12.473 0,0 1.721,-9.432 3.282,-9.432 0,0 1.859,-2.214 1.125,9.5 -0.161,1.916 0.527,5.852 0.607,7.01 l 0.195,4.51 c 0,0 -0.459,5.142 -0.459,7.269 0,0.529 1.836,7.557 6.678,14.947 0,0 10.098,17.911 9.455,29.622 0,0 -0.136,11.176 3.925,17.51 0,0 2.892,-31.642 0.941,-40.529 0,0 -9.088,-21.819 -7.103,-38.102 1.48,-12.104 4.326,-38.002 7.218,-48.215 1.492,-5.279 0.608,-18.635 1.812,-21.94 0.529,-1.445 0.253,-2.765 -0.918,-6.082 -4.084,-11.474 -3.556,-19.529 6.701,-49.961 0,0 3.157,-6.722 1.561,-18.839 0,0 -6.552,-13.473 -2.34,-13.748 0,0 0.344,-0.895 1.744,-0.184 0,0 2.248,-2.316 4.704,-1.078 0,0 2.273,-1.789 4.201,-0.207 0,0 1.583,-1.754 3.855,-0.332 0,0 2.96,-1.973 4.704,0.183 0,0 3.167,-0.722 -2.456,13.459 0,0 -2.156,15.01 -3.315,17.948 -2.238,5.634 -0.666,20.929 -0.173,24.234 0.758,5.473 0.345,14.848 -1.078,22.088 -1.01,5.199 1.79,14.998 2.799,21.01 2.134,12.691 6.289,45.072 5.772,51.177 l 1.71,-0.607 c 1.251,0 2.065,0.607 2.065,0.607 -0.516,-6.127 3.615,-38.486 5.784,-51.177 1.009,-6.012 3.809,-15.811 2.799,-21.01 -1.422,-7.24 -1.836,-16.615 -1.078,-22.088 0.493,-3.305 2.088,-18.611 -0.173,-24.234 -1.181,-2.938 -3.315,-17.948 -3.315,-17.948 -5.623,-14.17 -2.456,-13.459 -2.456,-13.459 1.744,-2.156 4.727,-0.183 4.727,-0.183 2.272,-1.422 3.856,0.332 3.856,0.332 1.928,-1.606 4.177,0.207 4.177,0.207 2.466,-1.238 4.704,1.078 4.704,1.078 1.4,-0.734 1.744,0.184 1.744,0.184 4.2,0.265 -2.34,13.748 -2.34,13.748 -1.584,12.117 1.561,18.839 1.561,18.839 10.257,30.432 10.785,38.487 6.701,49.961 -1.183,3.293 -1.446,4.637 -0.918,6.082 1.227,3.305 0.32,16.661 1.824,21.94 2.892,10.201 5.737,36.099 7.217,48.215 1.985,16.283 -7.091,38.102 -7.091,38.102 -1.95,8.887 0.94,40.529 0.94,40.529 4.063,-6.334 3.925,-17.51 3.925,-17.51 -0.676,-11.699 9.433,-29.622 9.433,-29.622 4.865,-7.413 6.701,-14.43 6.701,-14.947 0,-2.139 -0.459,-7.269 -0.459,-7.269 l 0.184,-4.51 c 0.08,-1.158 0.734,-5.094 0.607,-7.01 -0.746,-11.693 1.113,-9.5 1.113,-9.5 1.584,0 3.293,9.432 3.293,9.432 0,-2.434 -0.585,-9.73 0.723,-12.473 1.596,-3.248 2.72,0.573 2.743,1.33 0.413,14.928 1.308,11.028 1.308,11.028 0.861,-12.117 1.939,-14.86 3.867,-13.918 1.469,0.722 0.138,14.525 0.138,14.525 2.501,-8.191 4.394,-9.523 4.394,-9.523 4.12,-2.869 1.572,5.107 0.987,6.668 C 0.665,-12.641 0.597,-9.748 0.597,-9.748 4.384,-17.309 7.252,-17 7.252,-17 11.027,-15.83 4.085,-5.146 0,0"
           style="fill:#c8beb7;fill-opacity:1;fill-rule:nonzero;stroke:none"
           id="path166" />
      </g>
    </g>
    <path
       style="fill:none;fill-rule:evenodd;stroke:#3c3c3c;stroke-width:3.07408524;stroke-linecap:butt;stroke-linejoin:miter;stroke-miterlimit:4;stroke-dasharray:none;stroke-opacity:1"
       d="m 104.95141,22.814989 0,219.511091 31.31543,5.79636 -4.00423,114.52501 -8.75865,104.92569"
       id="path4154" />
    <path
       style="fill:none;fill-rule:evenodd;stroke:#3c3c3c;stroke-width:3.07408524;stroke-linecap:butt;stroke-linejoin:miter;stroke-miterlimit:4;stroke-dasharray:none;stroke-opacity:1"
       d="m 104.95141,242.32608 -32.650194,5.76817 5.026233,114.51707 9.143304,103.88318"
       id="path4171" />
    <path
       style="fill:none;fill-rule:evenodd;stroke:#3c3c3c;stroke-width:3.07408524;stroke-linecap:butt;stroke-linejoin:miter;stroke-miterlimit:4;stroke-dasharray:none;stroke-opacity:1"
       d="m 104.72077,86.64621 48.88925,12.763876 13.47632,77.305474 21.53778,70.71024"
       id="path4173" />
    <path
       id="path4175"
       d="M 105.31402,86.877702 55.881399,99.398246 43.331537,181.57472 21.389394,248.65336"
       style="fill:none;fill-rule:evenodd;stroke:#3c3c3c;stroke-width:3.07408524;stroke-linecap:butt;stroke-linejoin:miter;stroke-miterlimit:4;stroke-dasharray:none;stroke-opacity:1" />
  </g>
</svg>
