<?xml version="1.0" encoding="UTF-8" standalone="no"?>
<!--
This file is part of ARehab.

ARehab is free software : you can redistribute it and / or modify
it under the terms of the GNU General Public License as published by
the Free Software Foundation, version 3 of the License.

ARehab is distributed in the hope that it will be useful,
but WITHOUT ANY WARRANTY; without even the implied warranty of
MERCHANTABILITY or FITNESS FOR A PARTICULAR PURPOSE.See the
GNU General Public License for more details.

You should have received a copy of the GNU General Public License
along with Foobar.If not, see <http://www.gnu.org/licenses/>.

Copyright 2015 Jacobo de Haro
jacobodeharo@gmail.com
@jacobodeharo
-->
<svg
   xmlns:dc="http://purl.org/dc/elements/1.1/"
   xmlns:cc="http://creativecommons.org/ns#"
   xmlns:rdf="http://www.w3.org/1999/02/22-rdf-syntax-ns#"
   xmlns:svg="http://www.w3.org/2000/svg"
   xmlns="http://www.w3.org/2000/svg"
   xmlns:sodipodi="http://sodipodi.sourceforge.net/DTD/sodipodi-0.dtd"
   xmlns:inkscape="http://www.inkscape.org/namespaces/inkscape"
   version="1.1"
   id="Capa_1"
   x="0px"
   y="0px"
   viewBox="0 0 39.999999 39.999999"
   xml:space="preserve"
   inkscape:version="0.91 r13725"
   sodipodi:docname="power.svg"
   width="40"
   height="40"><metadata
     id="metadata45"><rdf:RDF><cc:Work
         rdf:about=""><dc:format>image/svg+xml</dc:format><dc:type
           rdf:resource="http://purl.org/dc/dcmitype/StillImage" /><dc:title></dc:title></cc:Work></rdf:RDF></metadata><defs
     id="defs43" /><sodipodi:namedview
     pagecolor="#ffffff"
     bordercolor="#666666"
     borderopacity="1"
     objecttolerance="10"
     gridtolerance="10"
     guidetolerance="10"
     inkscape:pageopacity="0"
     inkscape:pageshadow="2"
     inkscape:window-width="1077"
     inkscape:window-height="758"
     id="namedview41"
     showgrid="false"
     fit-margin-top="0"
     fit-margin-left="0"
     fit-margin-right="0"
     fit-margin-bottom="0"
     inkscape:zoom="9.0737819"
     inkscape:cx="-4.2668521"
     inkscape:cy="13.0045"
     inkscape:window-x="286"
     inkscape:window-y="286"
     inkscape:window-maximized="0"
     inkscape:current-layer="Capa_1" /><g
     id="g3"
     transform="matrix(1.6162922,0,0,1.5379292,-1.0182641,0)"><g
       id="c192_off"><path
         d="m 17.284,2.033 0,3.3 c 3.006,1.551 5.065,4.683 5.065,8.299 0,5.161 -4.184,9.344 -9.343,9.344 -5.16,0 -9.346,-4.183 -9.346,-9.344 C 3.66,10.316 5.395,7.409 8,5.751 L 8,2.32 C 3.662,4.242 0.63,8.581 0.63,13.632 c 0,6.834 5.539,12.377 12.374,12.377 6.834,0 12.374,-5.543 12.374,-12.377 0,-5.328 -3.375,-9.853 -8.094,-11.599 z"
         id="path6"
         inkscape:connector-curvature="0" /><path
         d="m 12.766,15.229 c 1.359,0 2.457,-0.803 2.457,-1.79 l 0,-11.644 C 15.224,0.804 14.125,0 12.766,0 11.409,0 10.31,0.804 10.31,1.795 l 0,11.645 c 10e-4,0.987 1.1,1.789 2.456,1.789 z"
         id="path8"
         inkscape:connector-curvature="0" /></g><g
       id="Capa_1_192_" /></g><g
     id="g11"
     transform="translate(-0.62999998,13.991)" /><g
     id="g13"
     transform="translate(-0.62999998,13.991)" /><g
     id="g15"
     transform="translate(-0.62999998,13.991)" /><g
     id="g17"
     transform="translate(-0.62999998,13.991)" /><g
     id="g19"
     transform="translate(-0.62999998,13.991)" /><g
     id="g21"
     transform="translate(-0.62999998,13.991)" /><g
     id="g23"
     transform="translate(-0.62999998,13.991)" /><g
     id="g25"
     transform="translate(-0.62999998,13.991)" /><g
     id="g27"
     transform="translate(-0.62999998,13.991)" /><g
     id="g29"
     transform="translate(-0.62999998,13.991)" /><g
     id="g31"
     transform="translate(-0.62999998,13.991)" /><g
     id="g33"
     transform="translate(-0.62999998,13.991)" /><g
     id="g35"
     transform="translate(-0.62999998,13.991)" /><g
     id="g37"
     transform="translate(-0.62999998,13.991)" /><g
     id="g39"
     transform="translate(-0.62999998,13.991)" /></svg>