<?xml version="1.0" encoding="UTF-8" standalone="no"?>
<!--
This file is part of ARehab.

ARehab is free software : you can redistribute it and / or modify
it under the terms of the GNU General Public License as published by
the Free Software Foundation, version 3 of the License.

ARehab is distributed in the hope that it will be useful,
but WITHOUT ANY WARRANTY; without even the implied warranty of
MERCHANTABILITY or FITNESS FOR A PARTICULAR PURPOSE.See the
GNU General Public License for more details.

You should have received a copy of the GNU General Public License
along with Foobar.If not, see <http://www.gnu.org/licenses/>.

Copyright 2015 Jacobo de Haro
jacobodeharo@gmail.com
@jacobodeharo
-->
<svg
   xmlns:dc="http://purl.org/dc/elements/1.1/"
   xmlns:cc="http://creativecommons.org/ns#"
   xmlns:rdf="http://www.w3.org/1999/02/22-rdf-syntax-ns#"
   xmlns:svg="http://www.w3.org/2000/svg"
   xmlns="http://www.w3.org/2000/svg"
   xmlns:sodipodi="http://sodipodi.sourceforge.net/DTD/sodipodi-0.dtd"
   xmlns:inkscape="http://www.inkscape.org/namespaces/inkscape"
   version="1.1"
   id="Capa_1"
   x="0px"
   y="0px"
   viewBox="0 0 40 40"
   xml:space="preserve"
   inkscape:version="0.91 r13725"
   sodipodi:docname="restart.svg"
   width="40"
   height="40"><metadata
     id="metadata45"><rdf:RDF><cc:Work
         rdf:about=""><dc:format>image/svg+xml</dc:format><dc:type
           rdf:resource="http://purl.org/dc/dcmitype/StillImage" /><dc:title></dc:title></cc:Work></rdf:RDF></metadata><defs
     id="defs43" /><sodipodi:namedview
     pagecolor="#ffffff"
     bordercolor="#666666"
     borderopacity="1"
     objecttolerance="10"
     gridtolerance="10"
     guidetolerance="10"
     inkscape:pageopacity="0"
     inkscape:pageshadow="2"
     inkscape:window-width="1958"
     inkscape:window-height="1104"
     id="namedview41"
     showgrid="false"
     fit-margin-top="0"
     fit-margin-left="0"
     fit-margin-right="0"
     fit-margin-bottom="0"
     inkscape:zoom="13.256937"
     inkscape:cx="6.686"
     inkscape:cy="8.9009996"
     inkscape:window-x="0"
     inkscape:window-y="0"
     inkscape:window-maximized="0"
     inkscape:current-layer="Capa_1" /><g
     id="g3"
     transform="matrix(2.9911015,0,0,2.2469151,-6.6252898,4.1731957e-4)"><g
       id="c92_stop"><path
         d="M 15.363,0.042 C 15.224,-0.028 15.06,-0.009 14.939,0.085 L 4.163,8.587 C 4.069,8.664 4.01,8.78 4.01,8.9 c 0,0.119 0.059,0.24 0.153,0.314 l 10.776,8.502 c 0.071,0.057 0.162,0.086 0.249,0.086 l 0.175,-0.039 c 0.139,-0.064 0.225,-0.207 0.225,-0.361 l 0,-16.999 c 0,-0.154 -0.086,-0.296 -0.225,-0.361 z"
         id="path6"
         inkscape:connector-curvature="0" /><path
         d="m 5.188,0.033 -2.658,0 c -0.172,0 -0.315,0.182 -0.315,0.401 l 0,16.936 c 0,0.221 0.143,0.403 0.315,0.403 l 2.657,0 c 0.174,0 0.315,-0.183 0.315,-0.403 l 0,-16.936 C 5.503,0.215 5.361,0.033 5.188,0.033 Z"
         id="path8"
         inkscape:connector-curvature="0" /></g><g
       id="Capa_1_264_" /></g><g
     id="g11"
     transform="translate(-2.215,22.198)" /><g
     id="g13"
     transform="translate(-2.215,22.198)" /><g
     id="g15"
     transform="translate(-2.215,22.198)" /><g
     id="g17"
     transform="translate(-2.215,22.198)" /><g
     id="g19"
     transform="translate(-2.215,22.198)" /><g
     id="g21"
     transform="translate(-2.215,22.198)" /><g
     id="g23"
     transform="translate(-2.215,22.198)" /><g
     id="g25"
     transform="translate(-2.215,22.198)" /><g
     id="g27"
     transform="translate(-2.215,22.198)" /><g
     id="g29"
     transform="translate(-2.215,22.198)" /><g
     id="g31"
     transform="translate(-2.215,22.198)" /><g
     id="g33"
     transform="translate(-2.215,22.198)" /><g
     id="g35"
     transform="translate(-2.215,22.198)" /><g
     id="g37"
     transform="translate(-2.215,22.198)" /><g
     id="g39"
     transform="translate(-2.215,22.198)" /></svg>