<?xml version="1.0" encoding="UTF-8" standalone="no"?>
<!-- Generator: Adobe Illustrator 16.0.0, SVG Export Plug-In . SVG Version: 6.00 Build 0)  -->

<svg
   xmlns:dc="http://purl.org/dc/elements/1.1/"
   xmlns:cc="http://creativecommons.org/ns#"
   xmlns:rdf="http://www.w3.org/1999/02/22-rdf-syntax-ns#"
   xmlns:svg="http://www.w3.org/2000/svg"
   xmlns="http://www.w3.org/2000/svg"
   xmlns:sodipodi="http://sodipodi.sourceforge.net/DTD/sodipodi-0.dtd"
   xmlns:inkscape="http://www.inkscape.org/namespaces/inkscape"
   version="1.1"
   id="Capa_1"
   x="0px"
   y="0px"
   width="40"
   height="40"
   viewBox="0 0 40 40"
   xml:space="preserve"
   inkscape:version="0.91 r13725"
   sodipodi:docname="maximize.svg"><metadata
     id="metadata49"><rdf:RDF><cc:Work
         rdf:about=""><dc:format>image/svg+xml</dc:format><dc:type
           rdf:resource="http://purl.org/dc/dcmitype/StillImage" /><dc:title></dc:title></cc:Work></rdf:RDF></metadata><defs
     id="defs47" /><sodipodi:namedview
     pagecolor="#ffffff"
     bordercolor="#666666"
     borderopacity="1"
     objecttolerance="10"
     gridtolerance="10"
     guidetolerance="10"
     inkscape:pageopacity="0"
     inkscape:pageshadow="2"
     inkscape:window-width="693"
     inkscape:window-height="480"
     id="namedview45"
     showgrid="false"
     fit-margin-top="0"
     fit-margin-left="0"
     fit-margin-right="0"
     fit-margin-bottom="0"
     inkscape:zoom="0.58561375"
     inkscape:cx="201.498"
     inkscape:cy="199.513"
     inkscape:window-x="0"
     inkscape:window-y="0"
     inkscape:window-maximized="0"
     inkscape:current-layer="Capa_1" /><g
     id="g3"
     transform="matrix(0.09925657,0,0,0.10024409,0,-0.19898452)"><g
       id="g5"><path
         d="m 392.996,1.985 -134.666,0 c -5.523,0 -10,4.477 -10,10 l 0,19.025 c 0,5.523 4.477,10 10,10 l 78.046,0 -111.421,111.421 c -3.905,3.905 -3.905,10.237 0,14.142 l 13.453,13.453 c 1.953,1.953 4.512,2.929 7.07,2.929 2.56,0 5.119,-0.977 7.071,-2.929 l 111.423,-111.422 0,78.047 c 0,5.523 4.478,10 10,10 l 19.024,0 c 5.523,0 10,-4.477 10,-10 l 0,-134.666 c 0,-5.523 -4.476,-10 -10,-10 z"
         id="path7"
         inkscape:connector-curvature="0" /><path
         d="m 66.62,41.01 78.046,0 c 5.523,0 10,-4.477 10,-10 l 0,-19.025 c 0,-5.523 -4.477,-10 -10,-10 L 10,1.985 c -5.523,0 -10,4.477 -10,10 l 0,134.666 c 0,5.523 4.477,10 10,10 l 19.024,0 c 5.523,0 10,-4.477 10,-10 l 0,-78.047 111.422,111.421 c 1.952,1.953 4.512,2.929 7.071,2.929 2.559,0 5.119,-0.977 7.071,-2.929 l 13.453,-13.453 c 3.905,-3.905 3.905,-10.237 0,-14.142 L 66.62,41.01 Z"
         id="path9"
         inkscape:connector-curvature="0" /><path
         d="m 392.996,246.344 -19.024,0 c -5.522,0 -10,4.478 -10,10 l 0,78.047 L 252.55,222.97 c -3.903,-3.905 -10.237,-3.905 -14.142,0 l -13.453,13.453 c -3.905,3.904 -3.905,10.236 0,14.142 l 111.421,111.421 -78.046,0 c -5.523,0 -10,4.477 -10,10 l 0,19.023 c 0,5.523 4.477,10 10,10 l 134.666,0 c 5.523,0 10,-4.477 10,-10 l 0,-134.665 c 0,-5.523 -4.476,-10 -10,-10 z"
         id="path11"
         inkscape:connector-curvature="0" /><path
         d="m 164.588,222.97 c -3.905,-3.905 -10.238,-3.905 -14.142,0 l -111.422,111.422 0,-78.047 c 0,-5.523 -4.477,-10 -10,-10 l -19.024,0 c -5.523,0 -10,4.477 -10,10 l 0,134.666 c 0,5.523 4.477,10 10,10 l 134.666,0 c 5.523,0 10,-4.477 10,-10 l 0,-19.023 c 0,-5.523 -4.477,-10 -10,-10 l -78.046,0 111.421,-111.422 c 3.905,-3.904 3.905,-10.236 0,-14.143 L 164.588,222.97 Z"
         id="path13"
         inkscape:connector-curvature="0" /></g></g><g
     id="g15"
     transform="translate(0,-361.011)" /><g
     id="g17"
     transform="translate(0,-361.011)" /><g
     id="g19"
     transform="translate(0,-361.011)" /><g
     id="g21"
     transform="translate(0,-361.011)" /><g
     id="g23"
     transform="translate(0,-361.011)" /><g
     id="g25"
     transform="translate(0,-361.011)" /><g
     id="g27"
     transform="translate(0,-361.011)" /><g
     id="g29"
     transform="translate(0,-361.011)" /><g
     id="g31"
     transform="translate(0,-361.011)" /><g
     id="g33"
     transform="translate(0,-361.011)" /><g
     id="g35"
     transform="translate(0,-361.011)" /><g
     id="g37"
     transform="translate(0,-361.011)" /><g
     id="g39"
     transform="translate(0,-361.011)" /><g
     id="g41"
     transform="translate(0,-361.011)" /><g
     id="g43"
     transform="translate(0,-361.011)" /></svg>